<svg width="1097" height="899" viewBox="0 0 1097 899" fill="none" xmlns="http://www.w3.org/2000/svg">
<g opacity="0.3">
<path d="M830.79 116.881C727.388 43.2827 600.91 0 464.323 0C205.618 0 -27.023 157.506 -123.103 397.707C-210.928 617.267 -168.788 836.115 -51.632 999.302L152.531 795.14C107.703 710.549 96.5889 606.554 138.303 502.269C191.627 368.958 320.742 281.543 464.323 281.543C522.83 281.543 577.994 295.852 626.508 321.162L830.79 116.881Z" fill="#1D203B"/>
<path d="M301.836 944.456C386.431 989.295 490.436 1000.42 594.731 958.697C728.042 905.373 815.457 776.258 815.457 632.677C815.457 574.16 801.143 518.987 775.825 470.467L980.104 266.188C1053.71 369.594 1097 496.08 1097 632.677C1097 891.382 939.494 1124.02 699.293 1220.1C479.723 1307.93 260.865 1265.78 97.6756 1148.62L301.836 944.456Z" fill="#1D203B"/>
</g>
</svg>
