<svg width="738" height="800" viewBox="0 0 738 800" fill="none" xmlns="http://www.w3.org/2000/svg">
<g opacity="0.3">
<path d="M545.538 67.5009C470.783 14.292 379.343 -17 280.595 -17C93.5596 -17 -74.6322 96.8715 -144.095 270.529C-207.589 429.264 -177.124 587.484 -92.4238 705.463L55.1792 557.86C22.7703 496.704 14.7351 421.519 44.8929 346.124C83.4447 249.745 176.791 186.546 280.595 186.546C322.893 186.546 362.776 196.892 397.85 215.19L545.538 67.5009Z" fill="#11142C"/>
<path d="M163.122 665.811C224.281 698.228 299.474 706.268 374.876 676.107C471.255 637.555 534.453 544.209 534.453 440.405C534.453 398.099 524.105 358.211 505.801 323.132L653.488 175.445C706.704 250.204 738 341.65 738 440.405C738 627.44 624.128 795.632 450.471 865.095C291.729 928.592 133.502 898.121 15.5208 813.412L163.122 665.811Z" fill="#11142C"/>
</g>
</svg>
