<svg width="234" height="56" viewBox="0 0 234 56" fill="none" xmlns="http://www.w3.org/2000/svg">
<path d="M0 16C0 7.16344 7.16344 0 16 0H40C48.8366 0 56 7.16344 56 16V40C56 48.8366 48.8366 56 40 56H16C7.16344 56 0 48.8366 0 40V16Z" fill="#293FFB"/>
<path d="M38.3435 13.2274C35.4054 11.1361 31.8115 9.90625 27.9304 9.90625C20.5794 9.90625 13.9689 14.3817 11.2388 21.207C8.7433 27.4458 9.94069 33.6643 13.2697 38.3013L19.0709 32.5C17.7971 30.0964 17.4813 27.1414 18.6666 24.1782C20.1818 20.3901 23.8506 17.9062 27.9304 17.9062C29.5929 17.9062 31.1604 18.3128 32.5389 19.032L38.3435 13.2274Z" fill="white"/>
<path d="M23.3134 36.7428C25.7171 38.0169 28.6724 38.3329 31.636 37.1475C35.424 35.6323 37.9079 31.9635 37.9079 27.8837C37.9079 26.2209 37.5011 24.6532 36.7817 23.2745L42.5863 17.4699C44.6778 20.4082 45.9079 24.0023 45.9079 27.8837C45.9079 35.2347 41.4324 41.8452 34.6071 44.5753C28.368 47.0709 22.1492 45.8733 17.5122 42.544L23.3134 36.7428Z" fill="white"/>
<path d="M83.2662 34.4787C83.9553 34.4787 84.519 34.4265 84.9575 34.3221C85.4169 34.1969 85.7823 34.0403 86.0537 33.8524C86.3251 33.6436 86.5131 33.4034 86.6174 33.132C86.7218 32.8606 86.774 32.5578 86.774 32.2237C86.774 31.5138 86.44 30.9292 85.7718 30.4698C85.1037 29.9896 83.9553 29.478 82.3266 28.9351C81.6167 28.6846 80.9068 28.4027 80.1969 28.0895C79.4869 27.7554 78.8501 27.3482 78.2864 26.868C77.7226 26.3669 77.2632 25.7718 76.9083 25.0828C76.5533 24.3729 76.3758 23.5168 76.3758 22.5145C76.3758 21.5123 76.5638 20.6145 76.9396 19.821C77.3154 19.0067 77.8479 18.3177 78.5369 17.7539C79.226 17.1902 80.0611 16.7621 81.0425 16.4698C82.0239 16.1566 83.1305 16 84.3624 16C85.824 16 87.0872 16.1566 88.1521 16.4698C89.217 16.783 90.094 17.1275 90.783 17.5034L89.3736 21.3557C88.7681 21.0425 88.0895 20.7711 87.3378 20.5414C86.607 20.2908 85.7196 20.1655 84.6756 20.1655C83.5063 20.1655 82.6607 20.3326 82.1387 20.6667C81.6376 20.9799 81.387 21.4705 81.387 22.1387C81.387 22.5354 81.481 22.8695 81.6689 23.1409C81.8568 23.4124 82.1178 23.6629 82.4519 23.8926C82.8069 24.1014 83.2036 24.2998 83.6421 24.4877C84.1014 24.6547 84.6025 24.8322 85.1454 25.0201C86.2729 25.4377 87.2543 25.8553 88.0895 26.2729C88.9247 26.6697 89.6137 27.1394 90.1566 27.6823C90.7204 28.2252 91.138 28.862 91.4094 29.5928C91.6808 30.3236 91.8166 31.211 91.8166 32.255C91.8166 34.2804 91.1066 35.8568 89.6868 36.9843C88.267 38.091 86.1268 38.6443 83.2662 38.6443C82.3057 38.6443 81.4392 38.5817 80.6667 38.4564C79.8941 38.352 79.2051 38.2163 78.5996 38.0492C78.0149 37.8822 77.5034 37.7047 77.0649 37.5168C76.6473 37.3289 76.2923 37.1514 76 36.9843L77.3781 33.1007C78.0254 33.4556 78.8188 33.7793 79.7584 34.0716C80.7189 34.343 81.8881 34.4787 83.2662 34.4787Z" fill="white"/>
<path d="M95.1061 17.6286L99.7728 16.877V21.7315H105.379V25.6152H99.7728V31.4094C99.7728 32.3908 99.9398 33.1737 100.274 33.7584C100.629 34.343 101.328 34.6353 102.372 34.6353C102.873 34.6353 103.385 34.5936 103.907 34.5101C104.45 34.4057 104.941 34.2699 105.379 34.1029L106.037 37.736C105.473 37.9657 104.847 38.1641 104.158 38.3311C103.469 38.4981 102.623 38.5817 101.621 38.5817C100.347 38.5817 99.2926 38.4146 98.4574 38.0805C97.6222 37.7256 96.954 37.2453 96.4529 36.6398C95.9518 36.0134 95.5968 35.2617 95.388 34.3848C95.2001 33.5078 95.1061 32.5369 95.1061 31.472V17.6286Z" fill="white"/>
<path d="M114.863 34.9485C115.322 34.9485 115.761 34.9381 116.178 34.9172C116.596 34.8963 116.93 34.865 117.181 34.8233V31.2841C116.993 31.2424 116.711 31.2006 116.335 31.1588C115.959 31.1171 115.615 31.0962 115.301 31.0962C114.863 31.0962 114.445 31.1275 114.049 31.1902C113.673 31.2319 113.339 31.3259 113.046 31.472C112.754 31.6182 112.524 31.8166 112.357 32.0671C112.19 32.3177 112.107 32.6309 112.107 33.0067C112.107 33.7375 112.347 34.2491 112.827 34.5414C113.328 34.8128 114.007 34.9485 114.863 34.9485ZM114.487 21.2931C115.865 21.2931 117.014 21.4497 117.932 21.7629C118.851 22.0761 119.582 22.525 120.125 23.1096C120.688 23.6943 121.085 24.4042 121.315 25.2394C121.544 26.0746 121.659 27.0037 121.659 28.0268V37.736C120.991 37.8822 120.062 38.0492 118.872 38.2371C117.682 38.4459 116.241 38.5503 114.55 38.5503C113.485 38.5503 112.514 38.4564 111.637 38.2685C110.781 38.0805 110.04 37.7778 109.413 37.3602C108.787 36.9217 108.307 36.3579 107.972 35.6689C107.638 34.9799 107.471 34.1342 107.471 33.132C107.471 32.1715 107.659 31.3572 108.035 30.689C108.432 30.0209 108.954 29.4884 109.601 29.0917C110.248 28.695 110.99 28.4131 111.825 28.2461C112.66 28.0582 113.527 27.9642 114.424 27.9642C115.03 27.9642 115.562 27.9955 116.022 28.0582C116.502 28.0999 116.888 28.1626 117.181 28.2461V27.8076C117.181 27.0142 116.94 26.3773 116.46 25.8971C115.98 25.4169 115.145 25.1767 113.955 25.1767C113.161 25.1767 112.378 25.2394 111.606 25.3647C110.833 25.4691 110.165 25.6257 109.601 25.8345L109.006 22.0761C109.277 21.9925 109.612 21.909 110.008 21.8255C110.426 21.7211 110.875 21.6376 111.355 21.5749C111.835 21.4914 112.336 21.4288 112.858 21.387C113.401 21.3244 113.944 21.2931 114.487 21.2931Z" fill="white"/>
<path d="M135.808 25.8658C135.39 25.7614 134.899 25.657 134.336 25.5526C133.772 25.4273 133.166 25.3647 132.519 25.3647C132.227 25.3647 131.872 25.396 131.454 25.4586C131.057 25.5004 130.755 25.5526 130.546 25.6152V38.2058H125.879V22.6085C126.714 22.3162 127.696 22.0447 128.823 21.7942C129.972 21.5227 131.245 21.387 132.644 21.387C132.895 21.387 133.198 21.4079 133.553 21.4497C133.907 21.4705 134.262 21.5123 134.617 21.5749C134.972 21.6167 135.327 21.6793 135.682 21.7629C136.037 21.8255 136.34 21.909 136.591 22.0134L135.808 25.8658Z" fill="white"/>
<path d="M138.936 17.6286L143.602 16.877V21.7315H149.209V25.6152H143.602V31.4094C143.602 32.3908 143.769 33.1737 144.103 33.7584C144.458 34.343 145.158 34.6353 146.202 34.6353C146.703 34.6353 147.215 34.5936 147.737 34.5101C148.279 34.4057 148.77 34.2699 149.209 34.1029L149.866 37.736C149.303 37.9657 148.676 38.1641 147.987 38.3311C147.298 38.4981 146.452 38.5817 145.45 38.5817C144.177 38.5817 143.122 38.4146 142.287 38.0805C141.452 37.7256 140.784 37.2453 140.282 36.6398C139.781 36.0134 139.426 35.2617 139.218 34.3848C139.03 33.5078 138.936 32.5369 138.936 31.472V17.6286Z" fill="white"/>
<path d="M167.071 37.6421C166.278 37.8717 165.255 38.0805 164.002 38.2685C162.749 38.4773 161.434 38.5817 160.056 38.5817C158.657 38.5817 157.488 38.3937 156.548 38.0179C155.629 37.6421 154.898 37.1201 154.356 36.4519C153.813 35.7629 153.426 34.9485 153.197 34.0089C152.967 33.0694 152.852 32.0358 152.852 30.9083V21.7315H157.519V30.3445C157.519 31.8479 157.717 32.9336 158.114 33.6018C158.511 34.2699 159.252 34.604 160.338 34.604C160.672 34.604 161.027 34.5936 161.403 34.5727C161.778 34.5309 162.112 34.4892 162.405 34.4474V21.7315H167.071V37.6421Z" fill="white"/>
<path d="M182.007 30.094C182.007 28.6532 181.683 27.5048 181.036 26.6488C180.389 25.7718 179.428 25.3333 178.155 25.3333C177.737 25.3333 177.351 25.3542 176.996 25.396C176.641 25.4169 176.348 25.4482 176.119 25.4899V33.915C176.411 34.1029 176.787 34.2595 177.246 34.3848C177.726 34.5101 178.207 34.5727 178.687 34.5727C180.9 34.5727 182.007 33.0798 182.007 30.094ZM186.768 29.9687C186.768 31.2424 186.611 32.4012 186.298 33.4452C185.985 34.4892 185.525 35.387 184.92 36.1387C184.314 36.8904 183.562 37.475 182.665 37.8926C181.767 38.3102 180.733 38.519 179.564 38.519C178.917 38.519 178.311 38.4564 177.747 38.3311C177.184 38.2058 176.641 38.0283 176.119 37.7987V44H171.452V22.2953C171.87 22.17 172.35 22.0552 172.893 21.9508C173.436 21.8255 173.999 21.7211 174.584 21.6376C175.19 21.5541 175.795 21.4914 176.401 21.4497C177.027 21.387 177.622 21.3557 178.186 21.3557C179.543 21.3557 180.754 21.5645 181.819 21.9821C182.884 22.3788 183.782 22.953 184.512 23.7047C185.243 24.4355 185.797 25.3333 186.172 26.3982C186.569 27.4631 186.768 28.6532 186.768 29.9687Z" fill="white"/>
<path d="M189.571 30.094C189.571 28.6324 189.79 27.3587 190.229 26.2729C190.688 25.1663 191.283 24.2476 192.014 23.5168C192.745 22.786 193.58 22.2327 194.52 21.8568C195.48 21.481 196.462 21.2931 197.464 21.2931C199.802 21.2931 201.65 22.0134 203.007 23.4541C204.365 24.874 205.043 26.9724 205.043 29.7494C205.043 30.0209 205.033 30.3236 205.012 30.6577C204.991 30.9709 204.97 31.2528 204.949 31.5034H194.363C194.467 32.4638 194.916 33.226 195.71 33.7897C196.503 34.3535 197.568 34.6353 198.904 34.6353C199.761 34.6353 200.596 34.5623 201.41 34.4161C202.245 34.2491 202.924 34.0507 203.446 33.821L204.072 37.6107C203.822 37.736 203.488 37.8613 203.07 37.9866C202.652 38.1119 202.183 38.2163 201.661 38.2998C201.159 38.4042 200.617 38.4877 200.032 38.5503C199.447 38.613 198.863 38.6443 198.278 38.6443C196.796 38.6443 195.501 38.4251 194.394 37.9866C193.309 37.5481 192.4 36.953 191.67 36.2013C190.96 35.4288 190.427 34.5205 190.072 33.4765C189.738 32.4325 189.571 31.305 189.571 30.094ZM200.533 28.3087C200.512 27.912 200.439 27.5257 200.314 27.1499C200.209 26.774 200.032 26.44 199.781 26.1477C199.552 25.8553 199.249 25.6152 198.873 25.4273C198.518 25.2394 198.069 25.1454 197.526 25.1454C197.004 25.1454 196.555 25.2394 196.18 25.4273C195.804 25.5943 195.491 25.824 195.24 26.1163C194.989 26.4087 194.791 26.7532 194.645 27.1499C194.52 27.5257 194.426 27.912 194.363 28.3087H200.533Z" fill="white"/>
<path d="M218.573 25.8658C218.155 25.7614 217.665 25.657 217.101 25.5526C216.537 25.4273 215.932 25.3647 215.284 25.3647C214.992 25.3647 214.637 25.396 214.219 25.4586C213.823 25.5004 213.52 25.5526 213.311 25.6152V38.2058H208.644V22.6085C209.48 22.3162 210.461 22.0447 211.589 21.7942C212.737 21.5227 214.011 21.387 215.41 21.387C215.66 21.387 215.963 21.4079 216.318 21.4497C216.673 21.4705 217.028 21.5123 217.383 21.5749C217.738 21.6167 218.093 21.6793 218.448 21.7629C218.803 21.8255 219.105 21.909 219.356 22.0134L218.573 25.8658Z" fill="white"/>
<path d="M226.587 34.8546C227.443 34.8546 228.048 34.7711 228.403 34.604C228.758 34.437 228.936 34.1133 228.936 33.6331C228.936 33.2573 228.706 32.9336 228.247 32.6622C227.787 32.3699 227.088 32.0462 226.148 31.6913C225.418 31.4198 224.749 31.138 224.144 30.8456C223.559 30.5533 223.058 30.2088 222.641 29.8121C222.223 29.3945 221.899 28.9038 221.67 28.34C221.44 27.7763 221.325 27.0977 221.325 26.3043C221.325 24.7591 221.899 23.5377 223.048 22.6398C224.196 21.742 225.773 21.2931 227.777 21.2931C228.779 21.2931 229.74 21.387 230.658 21.5749C231.577 21.742 232.308 21.9299 232.851 22.1387L232.037 25.7718C231.494 25.5839 230.899 25.4169 230.251 25.2707C229.625 25.1245 228.915 25.0515 228.122 25.0515C226.66 25.0515 225.929 25.4586 225.929 26.2729C225.929 26.4609 225.96 26.6279 226.023 26.7741C226.086 26.9202 226.211 27.0664 226.399 27.2125C226.587 27.3378 226.837 27.484 227.151 27.651C227.485 27.7972 227.902 27.9642 228.403 28.1521C229.427 28.528 230.272 28.9038 230.94 29.2796C231.608 29.6346 232.13 30.0313 232.506 30.4698C232.903 30.8874 233.174 31.3572 233.321 31.8792C233.488 32.4012 233.571 33.0067 233.571 33.6958C233.571 35.3244 232.955 36.5563 231.723 37.3915C230.512 38.2267 228.79 38.6443 226.556 38.6443C225.094 38.6443 223.872 38.519 222.891 38.2685C221.931 38.0179 221.262 37.8091 220.887 37.6421L221.67 33.8524C222.463 34.1655 223.277 34.4161 224.113 34.604C224.948 34.7711 225.773 34.8546 226.587 34.8546Z" fill="white"/>
</svg>
