<svg width="482" height="800" viewBox="0 0 482 800" fill="none" xmlns="http://www.w3.org/2000/svg">
<g opacity="0.3">
<path d="M125.133 741.195C193.467 709.97 253.09 657.942 293.516 587.922C370.086 455.299 358.198 289.419 263.498 169.071C176.935 59.0637 52.2721 15.893 -66.06 27.6528L-21.8244 192.742C34.8083 194.799 91.4101 219.881 132.525 272.131C185.083 338.924 191.681 430.987 149.185 504.592C131.868 534.585 108.205 558.63 80.8717 576.009L125.133 741.195Z" fill="#11142C"/>
<path d="M-142.561 225.089C-190.585 255.185 -227.069 305.211 -236.551 371.024C-248.672 455.148 -208.354 538.176 -134.749 580.672C-104.75 597.991 -72.2293 606.983 -39.8624 608.365L4.3983 773.548C-70.3979 780.677 -148.053 765.432 -218.078 725.003C-350.702 648.433 -423.346 498.833 -401.507 347.258C-381.544 208.702 -295.161 108.981 -186.796 60.0012L-142.561 225.089Z" fill="#11142C"/>
</g>
</svg>
