<svg width="241" height="217" viewBox="0 0 241 217" fill="none" xmlns="http://www.w3.org/2000/svg">
<g opacity="0.1">
<path d="M175.985 127.693C174.001 127.693 172.062 127.104 170.412 126.002C168.763 124.9 167.477 123.334 166.718 121.501C165.959 119.668 165.76 117.651 166.147 115.705C166.534 113.76 167.49 111.972 168.892 110.57C170.295 109.167 172.082 108.212 174.028 107.825C175.974 107.438 177.991 107.636 179.823 108.395C181.656 109.155 183.223 110.44 184.325 112.09C185.427 113.739 186.015 115.678 186.015 117.662C186.015 120.323 184.959 122.874 183.078 124.755C181.196 126.636 178.645 127.693 175.985 127.693ZM65.5452 127.693C63.5614 127.693 61.6221 127.104 59.9726 126.002C58.3231 124.9 57.0375 123.334 56.2783 121.501C55.5191 119.668 55.3205 117.651 55.7075 115.705C56.0945 113.76 57.0499 111.972 58.4526 110.57C59.8554 109.167 61.6427 108.212 63.5884 107.825C65.5341 107.438 67.5509 107.636 69.3838 108.395C71.2166 109.155 72.7831 110.44 73.8853 112.09C74.9875 113.739 75.5757 115.678 75.5757 117.662C75.5757 120.323 74.5189 122.874 72.6378 124.755C70.7568 126.636 68.2055 127.693 65.5452 127.693ZM179.537 67.5099L199.598 32.9257C199.869 32.4521 200.043 31.9298 200.112 31.3886C200.18 30.8474 200.141 30.2981 199.996 29.7722C199.851 29.2463 199.604 28.7542 199.268 28.3241C198.933 27.894 198.516 27.5344 198.041 27.266C197.566 26.9976 197.043 26.8257 196.501 26.7601C195.96 26.6945 195.411 26.7366 194.886 26.8838C194.36 27.0311 193.869 27.2807 193.441 27.6182C193.013 27.9558 192.655 28.3747 192.389 28.8508L172.119 63.853C156.02 56.4962 138.517 52.7177 120.817 52.7777C103.096 52.7343 85.5705 56.4746 69.4112 63.7485L49.1412 28.7463C48.598 27.7959 47.7005 27.0994 46.645 26.8089C45.5895 26.5185 44.462 26.6578 43.5089 27.1965C42.5559 27.7352 41.855 28.6293 41.5595 29.6833C41.264 30.7374 41.3978 31.8656 41.9319 32.8212L61.8883 67.4054C44.6332 76.8162 29.9977 90.3819 19.3067 106.874C8.61574 123.367 2.20701 142.265 0.660645 161.859H240.661C239.162 142.279 232.783 123.387 222.106 106.906C211.429 90.4253 196.794 76.8811 179.537 67.5099Z" fill="#11142C"/>
</g>
</svg>
