<svg width="241" height="241" viewBox="0 0 241 241" fill="none" xmlns="http://www.w3.org/2000/svg">
<g opacity="0.1" clip-path="url(#clip0)">
<path d="M188.59 230.511C175.582 243.135 161.23 241.167 147.55 235.215C133.006 229.143 119.71 228.759 104.35 235.215C85.2223 243.471 75.0703 241.071 63.5503 230.511C-1.48971 163.551 8.11029 61.551 82.0303 57.711C99.9583 58.671 112.51 67.623 123.07 68.367C138.766 65.175 153.79 56.031 170.59 57.231C190.774 58.863 205.87 66.831 215.95 81.1589C174.43 106.119 184.27 160.839 222.406 176.199C214.774 196.239 204.982 216.039 188.566 230.679L188.59 230.511ZM121.63 56.991C119.686 27.2311 143.806 2.75113 171.55 0.351135C175.366 34.6711 140.35 60.351 121.63 56.991Z" fill="#11142C"/>
</g>
<defs>
<clipPath id="clip0">
<rect width="240" height="240" fill="white" transform="translate(0.110596 0.110657)"/>
</clipPath>
</defs>
</svg>
